<svg width="25" height="25" viewBox="0 0 25 25" fill="none" xmlns="http://www.w3.org/2000/svg">
<path d="M12.5 0C10.0278 0 7.61098 0.733109 5.55537 2.10662C3.49976 3.48014 1.89761 5.43237 0.951515 7.71645C0.0054211 10.0005 -0.242126 12.5139 0.240186 14.9386C0.722499 17.3634 1.91302 19.5906 3.66117 21.3389C5.40933 23.087 7.63661 24.2775 10.0614 24.7598C12.4861 25.2422 14.9995 24.9945 17.2836 24.0484C19.5677 23.1023 21.5198 21.5003 22.8934 19.4447C24.2669 17.389 25 14.9723 25 12.5C25 9.18479 23.683 6.00537 21.3389 3.66117C18.9947 1.31695 15.8152 0 12.5 0ZM18.6406 8.56249L16.5938 18.2344C16.4375 18.9219 16.0312 19.0781 15.4531 18.7656L12.3281 16.4531L10.7656 17.9062C10.692 18.0023 10.5975 18.0805 10.4892 18.1347C10.3809 18.1887 10.2617 18.2175 10.1406 18.2187L10.3594 15.0937L16.1406 9.85937C16.4062 9.64062 16.1406 9.51562 15.7656 9.73437L8.67188 14.1875L5.54688 13.2187C4.875 13.0156 4.85937 12.5469 5.6875 12.2344L17.7344 7.54687C18.3281 7.37499 18.8281 7.71874 18.6406 8.56249Z" fill="white"/>
</svg>
